<svg viewBox="0 0 50 50" xmlns="http://www.w3.org/2000/svg" version="1.1">

  <g 
  stroke-miterlimit="10" 
  stroke-width="0" 
  transform="matrix(0.4 0 0 0.4 0 0)">
   <path d="m1.48,29.83l18.66,0l0,60.01l-18.66,0l0,-60.01zm9.33,-29.83c5.96,0 10.81,4.85 10.81,10.82c0,5.97 -4.85,10.81 -10.81,10.81c-5.98,0 -10.81,-4.84 -10.81,-10.81c0,-5.97 4.83,-10.82 10.81,-10.82" 
   fill="#313d4d" 
   opacity="0.58" 
   stroke-linecap="round"/>
   <path d="m31.84,29.83l17.89,0l0,8.21l0.25,0c2.49,-4.72 8.58,-9.7 17.65,-9.7c18.88,0 22.37,12.43 22.37,28.59l0,32.91l-18.64,0l0,-29.18c0,-6.96 -0.12,-15.91 -9.7,-15.91c-9.7,0 -11.18,7.58 -11.18,15.41l0,29.68l-18.64,0l0,-60.01z" 
   fill="#313d4d"  
   opacity="0.6" 
   stroke-linecap="round"/>
  </g>
</svg>