<svg xmlns="http://www.w3.org/2000/svg" 
xml:space="preserve" 
width="16" 
height="16" viewBox="0 0 24 24">
<path d="M23 13h-1a1 1 0 0 1 0-2h1a1 1 0 0 1 0 2zM19.041 13h-1.973a1 1 0 0 1 0-2h1.973a1 1 0 0 1 0 2zM6.931 13H4.958a1 1 0 0 1 0-2h1.973a1 1 0 0 1 0 2zM2 13H1a1 1 0 0 1 0-2h1a1 1 0 0 1 0 2z"/><path d="M1 24a1 1 0 0 1-1-1V1a1 1 0 0 1 2 0v22a1 1 0 0 1-1 1zM23.97 15.12l-.76 3.06c-.27 1.07-1.24 1.82-2.36 1.82s-2.1-.75-2.37-1.82L15.53 6.3c-.03-.14-.19-.3-.42-.3-.23 0-.39.16-.43.31l-.79 3.17C13.33 9.17 12.68 9 12 9h-.05l.79-3.18C13.01 4.75 13.99 4 15.11 4s2.09.75 2.37 1.82l2.94 11.88c.04.14.2.3.43.3.23 0 .39-.16.42-.31l.76-3.05c.13-.53.67-.86 1.21-.73.54.14.86.68.73 1.21z"/><path d="m12.04 17-.3 1.18C11.47 19.25 10.49 20 9.37 20s-2.1-.75-2.37-1.82L4.06 6.3c-.04-.14-.2-.3-.43-.3s-.39.16-.43.31l-1.23 4.97a1 1 0 0 1-1.94-.48l1.23-4.98C1.53 4.75 2.51 4 3.63 4s2.1.75 2.37 1.82L8.94 17.7c.04.14.2.3.43.3s.39-.16.43-.31l.29-1.18c.57.31 1.22.49 1.91.49h.04z"/><path d="M12 15c-1.103 0-2-.897-2-2s.897-2 2-2 2 .897 2 2-.897 2-2 2z"/>
</svg>